<svg width="408" height="408" viewBox="0 0 408 408" fill="none" xmlns="http://www.w3.org/2000/svg">
<path d="M144 288C223.529 288 288 223.529 288 144C288 64.471 223.529 0 144 0C64.471 0 0 64.471 0 144C0 223.529 64.471 288 144 288Z" transform="translate(59.6468 59.6448)" stroke="url(#paint0_linear)" stroke-miterlimit="10"/>
<path d="M138.6 237.6C215.147 237.6 277.2 184.411 277.2 118.8C277.2 53.1886 215.147 0 138.6 0C62.0533 0 0 53.1886 0 118.8C0 184.411 62.0533 237.6 138.6 237.6Z" transform="translate(65.0468 84.8448)" stroke="url(#paint1_linear)" stroke-miterlimit="10"/>
<path d="M133.2 187.2C206.764 187.2 266.4 145.294 266.4 93.6C266.4 41.9061 206.764 0 133.2 0C59.6357 0 0 41.9061 0 93.6C0 145.294 59.6357 187.2 133.2 187.2Z" transform="translate(70.4468 110.045)" stroke="url(#paint2_linear)" stroke-miterlimit="10"/>
<path d="M127.8 136.8C198.382 136.8 255.6 106.176 255.6 68.4C255.6 30.6237 198.382 0 127.8 0C57.218 0 0 30.6237 0 68.4C0 106.176 57.218 136.8 127.8 136.8Z" transform="translate(75.8468 135.245)" stroke="url(#paint3_linear)" stroke-miterlimit="10"/>
<path d="M122.4 86.4C190 86.4 244.8 67.0587 244.8 43.2C244.8 19.3413 190 0 122.4 0C54.8003 0 0 19.3413 0 43.2C0 67.0587 54.8003 86.4 122.4 86.4Z" transform="translate(81.2468 160.445)" stroke="url(#paint4_linear)" stroke-miterlimit="10"/>
<path d="M117 36C181.617 36 234 27.9411 234 18C234 8.05887 181.617 0 117 0C52.3827 0 0 8.05887 0 18C0 27.9411 52.3827 36 117 36Z" transform="translate(86.6468 185.645)" stroke="url(#paint5_linear)" stroke-miterlimit="10"/>
<path d="M144 288C223.529 288 288 223.529 288 144C288 64.471 223.529 0 144 0C64.471 0 0 64.471 0 144C0 223.529 64.471 288 144 288Z" transform="translate(0 203.645) rotate(-45)" stroke="url(#paint6_linear)" stroke-miterlimit="10"/>
<path d="M138.6 237.6C215.147 237.6 277.2 184.411 277.2 118.8C277.2 53.1886 215.147 0 138.6 0C62.0533 0 0 53.1886 0 118.8C0 184.411 62.0533 237.6 138.6 237.6Z" transform="translate(21.6373 217.645) rotate(-45)" stroke="url(#paint7_linear)" stroke-miterlimit="10"/>
<path d="M133.2 187.2C206.764 187.2 266.4 145.294 266.4 93.6C266.4 41.9061 206.764 0 133.2 0C59.6357 0 0 41.9061 0 93.6C0 145.294 59.6357 187.2 133.2 187.2Z" transform="translate(43.2745 231.646) rotate(-45)" stroke="url(#paint8_linear)" stroke-miterlimit="10"/>
<path d="M127.8 136.8C198.382 136.8 255.6 106.176 255.6 68.4C255.6 30.6237 198.382 0 127.8 0C57.218 0 0 30.6237 0 68.4C0 106.176 57.218 136.8 127.8 136.8Z" transform="translate(64.9118 245.647) rotate(-45)" stroke="url(#paint9_linear)" stroke-miterlimit="10"/>
<path d="M122.4 86.4C190 86.4 244.8 67.0587 244.8 43.2C244.8 19.3413 190 0 122.4 0C54.8003 0 0 19.3413 0 43.2C0 67.0587 54.8003 86.4 122.4 86.4Z" transform="translate(86.549 259.647) rotate(-45)" stroke="url(#paint10_linear)" stroke-miterlimit="10"/>
<path d="M117 36C181.617 36 234 27.9411 234 18C234 8.05887 181.617 0 117 0C52.3827 0 0 8.05887 0 18C0 27.9411 52.3827 36 117 36Z" transform="translate(108.186 273.648) rotate(-45)" stroke="url(#paint11_linear)" stroke-miterlimit="10"/>
<path d="M144 288C223.529 288 288 223.529 288 144C288 64.471 223.529 0 144 0C64.471 0 0 64.471 0 144C0 223.529 64.471 288 144 288Z" transform="translate(59.6468 59.6448)" stroke="url(#paint12_linear)" stroke-miterlimit="10"/>
<path d="M118.8 277.2C184.411 277.2 237.6 215.147 237.6 138.6C237.6 62.0533 184.411 0 118.8 0C53.1886 0 0 62.0533 0 138.6C0 215.147 53.1886 277.2 118.8 277.2Z" transform="translate(84.8468 65.0448)" stroke="url(#paint13_linear)" stroke-miterlimit="10"/>
<path d="M93.6 266.4C145.294 266.4 187.2 206.764 187.2 133.2C187.2 59.6357 145.294 0 93.6 0C41.9061 0 0 59.6357 0 133.2C0 206.764 41.9061 266.4 93.6 266.4Z" transform="translate(110.047 70.4448)" stroke="url(#paint14_linear)" stroke-miterlimit="10"/>
<path d="M68.4 255.6C106.176 255.6 136.8 198.382 136.8 127.8C136.8 57.218 106.176 0 68.4 0C30.6237 0 0 57.218 0 127.8C0 198.382 30.6237 255.6 68.4 255.6Z" transform="translate(135.247 75.8448)" stroke="url(#paint15_linear)" stroke-miterlimit="10"/>
<path d="M43.2 244.8C67.0587 244.8 86.4 190 86.4 122.4C86.4 54.8003 67.0587 0 43.2 0C19.3413 0 0 54.8003 0 122.4C0 190 19.3413 244.8 43.2 244.8Z" transform="translate(160.447 81.2448)" stroke="url(#paint16_linear)" stroke-miterlimit="10"/>
<path d="M18 234C27.9411 234 36 181.617 36 117C36 52.3827 27.9411 0 18 0C8.05887 0 0 52.3827 0 117C0 181.617 8.05887 234 18 234Z" transform="translate(185.647 86.6448)" stroke="url(#paint17_linear)" stroke-miterlimit="10"/>
<g filter="url(#filter0_d)">
<rect width="183" height="65" rx="10" transform="translate(22 258)" fill="url(#paint18_linear)"/>
</g>
<path d="M1.296 3.676V4.264C1.52 3.84 1.844 3.628 2.268 3.628V4.492H2.058C1.806 4.492 1.616 4.556 1.488 4.684C1.36 4.808 1.296 5.024 1.296 5.332V7H0.45V3.676H1.296ZM4.34592 6.334C4.58192 6.334 4.78392 6.248 4.95192 6.076C5.12392 5.9 5.20992 5.654 5.20992 5.338C5.20992 5.018 5.12592 4.772 4.95792 4.6C4.78992 4.428 4.58592 4.342 4.34592 4.342C4.10992 4.342 3.90992 4.428 3.74592 4.6C3.58192 4.772 3.49992 5.018 3.49992 5.338C3.49992 5.658 3.58192 5.904 3.74592 6.076C3.90992 6.248 4.10992 6.334 4.34592 6.334ZM3.12792 6.574C2.80392 6.258 2.64192 5.844 2.64192 5.332C2.64192 4.82 2.80592 4.408 3.13392 4.096C3.46192 3.784 3.86792 3.628 4.35192 3.628C4.83992 3.628 5.24792 3.784 5.57592 4.096C5.90392 4.408 6.06792 4.82 6.06792 5.332C6.06792 5.844 5.90192 6.258 5.56992 6.574C5.24192 6.89 4.83392 7.048 4.34592 7.048C3.85792 7.048 3.45192 6.89 3.12792 6.574ZM9.07111 6.052C9.24711 5.876 9.33511 5.636 9.33511 5.332C9.33511 5.028 9.24711 4.79 9.07111 4.618C8.89911 4.446 8.69511 4.36 8.45911 4.36C8.22311 4.36 8.01711 4.448 7.84111 4.624C7.66911 4.796 7.58311 5.034 7.58311 5.338C7.58311 5.642 7.66911 5.882 7.84111 6.058C8.01711 6.23 8.22311 6.316 8.45911 6.316C8.69511 6.316 8.89911 6.228 9.07111 6.052ZM7.58311 4.192C7.81911 3.816 8.16511 3.628 8.62111 3.628C9.07711 3.628 9.45311 3.788 9.74911 4.108C10.0451 4.424 10.1931 4.834 10.1931 5.338C10.1931 5.838 10.0451 6.248 9.74911 6.568C9.45311 6.888 9.07911 7.048 8.62711 7.048C8.17911 7.048 7.83111 6.846 7.58311 6.442V7H6.73711V2.56H7.58311V4.192ZM12.2602 7.048C11.7762 7.048 11.3822 6.892 11.0783 6.58C10.7743 6.264 10.6222 5.848 10.6222 5.332C10.6222 4.816 10.7743 4.404 11.0783 4.096C11.3862 3.784 11.7822 3.628 12.2663 3.628C12.7543 3.628 13.1543 3.78 13.4662 4.084C13.7782 4.384 13.9342 4.786 13.9342 5.29C13.9342 5.406 13.9262 5.514 13.9102 5.614H11.4863C11.5063 5.83 11.5863 6.004 11.7262 6.136C11.8662 6.268 12.0442 6.334 12.2602 6.334C12.5522 6.334 12.7682 6.214 12.9082 5.974H13.8203C13.7243 6.29 13.5383 6.548 13.2623 6.748C12.9863 6.948 12.6522 7.048 12.2602 7.048ZM13.0583 5.068C13.0463 4.848 12.9643 4.672 12.8122 4.54C12.6642 4.408 12.4842 4.342 12.2722 4.342C12.0602 4.342 11.8822 4.408 11.7383 4.54C11.5983 4.672 11.5143 4.848 11.4863 5.068H13.0583ZM15.4464 3.676V4.264C15.6704 3.84 15.9944 3.628 16.4184 3.628V4.492H16.2084C15.9564 4.492 15.7664 4.556 15.6384 4.684C15.5104 4.808 15.4464 5.024 15.4464 5.332V7H14.6004V3.676H15.4464ZM18.3103 6.292H18.7123V7H18.1783C17.8383 7 17.5763 6.922 17.3923 6.766C17.2083 6.61 17.1163 6.352 17.1163 5.992V4.366H16.7623V3.676H17.1163V2.854H17.9623V3.676H18.7063V4.366H17.9623V5.992C17.9623 6.1 17.9883 6.178 18.0403 6.226C18.0923 6.27 18.1823 6.292 18.3103 6.292Z" transform="translate(49 273)" fill="#006DFF"/>
<path opacity="0.5" d="M0.336 3.772C0.348 3.38 0.486 3.076 0.75 2.86C1.018 2.64 1.366 2.53 1.794 2.53C2.226 2.53 2.564 2.64 2.808 2.86C3.052 3.076 3.174 3.35 3.174 3.682C3.174 3.938 3.108 4.154 2.976 4.33C2.844 4.502 2.696 4.616 2.532 4.672V4.696C3.012 4.86 3.252 5.222 3.252 5.782C3.252 6.154 3.124 6.454 2.868 6.682C2.612 6.91 2.26 7.024 1.812 7.024C1.364 7.024 0.998 6.91 0.714 6.682C0.43 6.454 0.282 6.12 0.27 5.68H1.086C1.094 5.876 1.16 6.034 1.284 6.154C1.412 6.27 1.582 6.328 1.794 6.328C2.006 6.328 2.166 6.272 2.274 6.16C2.386 6.044 2.442 5.88 2.442 5.668C2.442 5.456 2.366 5.3 2.214 5.2C2.066 5.096 1.83 5.044 1.506 5.044H1.332V4.354H1.506C2.074 4.354 2.358 4.164 2.358 3.784C2.358 3.62 2.306 3.49 2.202 3.394C2.098 3.298 1.95 3.25 1.758 3.25C1.566 3.25 1.422 3.304 1.326 3.412C1.23 3.52 1.174 3.64 1.158 3.772H0.336ZM4.8578 4.402C4.7658 4.494 4.6518 4.54 4.5158 4.54C4.3798 4.54 4.2658 4.494 4.1738 4.402C4.0818 4.31 4.0358 4.198 4.0358 4.066C4.0358 3.93 4.0818 3.816 4.1738 3.724C4.2658 3.628 4.3798 3.58 4.5158 3.58C4.6518 3.58 4.7658 3.628 4.8578 3.724C4.9498 3.816 4.9958 3.93 4.9958 4.066C4.9958 4.198 4.9498 4.31 4.8578 4.402ZM4.8578 6.862C4.7658 6.954 4.6518 7 4.5158 7C4.3798 7 4.2658 6.954 4.1738 6.862C4.0818 6.77 4.0358 6.656 4.0358 6.52C4.0358 6.384 4.0818 6.27 4.1738 6.178C4.2658 6.086 4.3798 6.04 4.5158 6.04C4.6518 6.04 4.7658 6.086 4.8578 6.178C4.9498 6.27 4.9958 6.384 4.9958 6.52C4.9958 6.656 4.9498 6.77 4.8578 6.862ZM6.01866 2.614H8.70066V3.352H6.78666V4.348C6.87066 4.256 6.98666 4.18 7.13466 4.12C7.28266 4.056 7.46266 4.024 7.67466 4.024C7.88666 4.024 8.08666 4.068 8.27466 4.156C8.46666 4.244 8.61266 4.362 8.71266 4.51C8.91266 4.798 9.01266 5.118 9.01266 5.47C9.01266 5.934 8.87866 6.306 8.61066 6.586C8.34666 6.862 7.97866 7 7.50666 7C7.03466 7 6.66266 6.89 6.39066 6.67C6.12266 6.446 5.96466 6.154 5.91666 5.794H6.74466C6.78066 5.95 6.86266 6.074 6.99066 6.166C7.12266 6.258 7.29666 6.304 7.51266 6.304C7.73266 6.304 7.90266 6.23 8.02266 6.082C8.14266 5.934 8.20266 5.738 8.20266 5.494C8.20266 5.25 8.14066 5.062 8.01666 4.93C7.89666 4.798 7.73466 4.732 7.53066 4.732C7.14666 4.732 6.91066 4.886 6.82266 5.194H6.01866V2.614ZM9.87998 2.614H12.562V3.352H10.648V4.348C10.732 4.256 10.848 4.18 10.996 4.12C11.144 4.056 11.324 4.024 11.536 4.024C11.748 4.024 11.948 4.068 12.136 4.156C12.328 4.244 12.474 4.362 12.574 4.51C12.774 4.798 12.874 5.118 12.874 5.47C12.874 5.934 12.74 6.306 12.472 6.586C12.208 6.862 11.84 7 11.368 7C10.896 7 10.524 6.89 10.252 6.67C9.98398 6.446 9.82598 6.154 9.77798 5.794H10.606C10.642 5.95 10.724 6.074 10.852 6.166C10.984 6.258 11.158 6.304 11.374 6.304C11.594 6.304 11.764 6.23 11.884 6.082C12.004 5.934 12.064 5.738 12.064 5.494C12.064 5.25 12.002 5.062 11.878 4.93C11.758 4.798 11.596 4.732 11.392 4.732C11.008 4.732 10.772 4.886 10.684 5.194H9.87998V2.614ZM18.1801 4.9C18.0721 5.032 17.9141 5.138 17.7061 5.218C17.5021 5.294 17.2621 5.332 16.9861 5.332H16.2901V7H15.4441V2.812H16.9861C17.4701 2.812 17.8421 2.934 18.1021 3.178C18.3661 3.418 18.4981 3.702 18.4981 4.03C18.4981 4.358 18.3921 4.648 18.1801 4.9ZM16.2901 4.684H16.9861C17.1981 4.684 17.3601 4.63 17.4721 4.522C17.5841 4.41 17.6401 4.26 17.6401 4.072C17.6401 3.884 17.5841 3.736 17.4721 3.628C17.3601 3.516 17.1981 3.46 16.9861 3.46H16.2901V4.684ZM23.7015 2.812V7H22.8615V4.354L21.7215 7H21.1155L19.9815 4.366V7H19.1355V2.812H20.0775L21.4215 5.914L22.7655 2.812H23.7015Z" transform="translate(72 273)" fill="#9399A3"/>
<path opacity="0.8" d="M0.896 8.44C0.490667 8.024 0.288 7.472 0.288 6.784C0.288 6.096 0.490667 5.544 0.896 5.128C1.30133 4.712 1.82667 4.504 2.472 4.504C3.01067 4.504 3.46133 4.63467 3.824 4.896C4.18667 5.15733 4.42933 5.528 4.552 6.008H3.336C3.192 5.64 2.904 5.456 2.472 5.456C2.14667 5.456 1.89067 5.576 1.704 5.816C1.52267 6.05067 1.432 6.37333 1.432 6.784C1.432 7.19467 1.52267 7.52 1.704 7.76C1.89067 7.99467 2.14667 8.112 2.472 8.112C2.89867 8.112 3.18667 7.92533 3.336 7.552H4.552C4.424 8.016 4.176 8.384 3.808 8.656C3.44533 8.928 3 9.064 2.472 9.064C1.82667 9.064 1.30133 8.856 0.896 8.44ZM6.52488 3.08V5.232C6.80754 4.74667 7.26621 4.504 7.90088 4.504C8.40754 4.504 8.82088 4.672 9.14087 5.008C9.46087 5.33867 9.62087 5.8 9.62087 6.392V9H8.50087V6.552C8.50087 6.20533 8.41288 5.94133 8.23688 5.76C8.06088 5.57333 7.82088 5.48 7.51688 5.48C7.21287 5.48 6.97021 5.57333 6.78887 5.76C6.61288 5.94133 6.52488 6.20533 6.52488 6.552V9H5.39688V3.08H6.52488ZM12.6517 9.064C12.0064 9.064 11.481 8.856 11.0757 8.44C10.6704 8.01867 10.4677 7.464 10.4677 6.776C10.4677 6.088 10.6704 5.53867 11.0757 5.128C11.4864 4.712 12.0144 4.504 12.6597 4.504C13.3104 4.504 13.8437 4.70667 14.2597 5.112C14.6757 5.512 14.8837 6.048 14.8837 6.72C14.8837 6.87467 14.873 7.01867 14.8517 7.152H11.6197C11.6464 7.44 11.753 7.672 11.9397 7.848C12.1264 8.024 12.3637 8.112 12.6517 8.112C13.041 8.112 13.329 7.952 13.5157 7.632H14.7317C14.6037 8.05333 14.3557 8.39733 13.9877 8.664C13.6197 8.93067 13.1744 9.064 12.6517 9.064ZM13.7157 6.424C13.6997 6.13067 13.5904 5.896 13.3877 5.72C13.1904 5.544 12.9504 5.456 12.6677 5.456C12.385 5.456 12.1477 5.544 11.9557 5.72C11.769 5.896 11.657 6.13067 11.6197 6.424H13.7157ZM16.0679 8.44C15.6625 8.024 15.4599 7.472 15.4599 6.784C15.4599 6.096 15.6625 5.544 16.0679 5.128C16.4732 4.712 16.9985 4.504 17.6439 4.504C18.1825 4.504 18.6332 4.63467 18.9959 4.896C19.3585 5.15733 19.6012 5.528 19.7239 6.008H18.5079C18.3639 5.64 18.0759 5.456 17.6439 5.456C17.3185 5.456 17.0625 5.576 16.8759 5.816C16.6945 6.05067 16.6039 6.37333 16.6039 6.784C16.6039 7.19467 16.6945 7.52 16.8759 7.76C17.0625 7.99467 17.3185 8.112 17.6439 8.112C18.0705 8.112 18.3585 7.92533 18.5079 7.552H19.7239C19.5959 8.016 19.3479 8.384 18.9799 8.656C18.6172 8.928 18.1719 9.064 17.6439 9.064C16.9985 9.064 16.4732 8.856 16.0679 8.44ZM21.6968 9H20.5688V3.08H21.6968V6.464L23.1927 4.568H24.7207L22.7527 6.808L24.7207 9H23.2167L21.6968 7.152V9ZM27.2376 9.064C26.5923 9.064 26.067 8.856 25.6616 8.44C25.2563 8.01867 25.0536 7.464 25.0536 6.776C25.0536 6.088 25.2563 5.53867 25.6616 5.128C26.0723 4.712 26.6003 4.504 27.2456 4.504C27.8963 4.504 28.4296 4.70667 28.8456 5.112C29.2616 5.512 29.4696 6.048 29.4696 6.72C29.4696 6.87467 29.459 7.01867 29.4376 7.152H26.2056C26.2323 7.44 26.339 7.672 26.5256 7.848C26.7123 8.024 26.9496 8.112 27.2376 8.112C27.627 8.112 27.915 7.952 28.1016 7.632H29.3176C29.1896 8.05333 28.9416 8.39733 28.5736 8.664C28.2056 8.93067 27.7603 9.064 27.2376 9.064ZM28.3016 6.424C28.2856 6.13067 28.1763 5.896 27.9736 5.72C27.7763 5.544 27.5363 5.456 27.2536 5.456C26.971 5.456 26.7336 5.544 26.5416 5.72C26.355 5.896 26.243 6.13067 26.2056 6.424H28.3016ZM33.1818 7.744C33.4165 7.50933 33.5338 7.18933 33.5338 6.784C33.5338 6.37867 33.4165 6.06133 33.1818 5.832C32.9471 5.59733 32.6725 5.48 32.3578 5.48C32.0431 5.48 31.7685 5.59467 31.5338 5.824C31.3045 6.05333 31.1898 6.37067 31.1898 6.776C31.1898 7.18133 31.3071 7.50133 31.5418 7.736C31.7765 7.97067 32.0485 8.088 32.3578 8.088C32.6725 8.088 32.9471 7.97333 33.1818 7.744ZM30.6378 8.424C30.2431 7.992 30.0458 7.44267 30.0458 6.776C30.0458 6.10933 30.2431 5.56533 30.6378 5.144C31.0325 4.71733 31.5338 4.504 32.1418 4.504C32.7498 4.504 33.2138 4.75467 33.5338 5.256V3.08H34.6538V9H33.5338V8.256C33.1978 8.79467 32.7311 9.064 32.1338 9.064C31.5365 9.064 31.0378 8.85067 30.6378 8.424ZM39.4964 3.44C39.4964 3.632 39.4298 3.79467 39.2964 3.928C39.1631 4.06133 39.0004 4.128 38.8084 4.128C38.6218 4.128 38.4618 4.06133 38.3284 3.928C38.1951 3.79467 38.1284 3.632 38.1284 3.44C38.1284 3.248 38.1951 3.08533 38.3284 2.952C38.4618 2.81867 38.6218 2.752 38.8084 2.752C39.0004 2.752 39.1631 2.81867 39.2964 2.952C39.4298 3.08533 39.4964 3.248 39.4964 3.44ZM38.2484 9V4.568H39.3764V9H38.2484ZM42.2966 8.056H42.8326V9H42.1206C41.6672 9 41.3179 8.896 41.0726 8.688C40.8272 8.48 40.7046 8.136 40.7046 7.656V5.488H40.2326V4.568H40.7046V3.472H41.8326V4.568H42.8246V5.488H41.8326V7.656C41.8326 7.8 41.8672 7.904 41.9366 7.968C42.0059 8.02667 42.1259 8.056 42.2966 8.056ZM48.0758 8.112C48.3905 8.112 48.6598 7.99733 48.8838 7.768C49.1131 7.53333 49.2278 7.20533 49.2278 6.784C49.2278 6.35733 49.1158 6.02933 48.8918 5.8C48.6678 5.57067 48.3958 5.456 48.0758 5.456C47.7611 5.456 47.4945 5.57067 47.2758 5.8C47.0571 6.02933 46.9478 6.35733 46.9478 6.784C46.9478 7.21067 47.0571 7.53867 47.2758 7.768C47.4945 7.99733 47.7611 8.112 48.0758 8.112ZM46.4518 8.432C46.0198 8.01067 45.8038 7.45867 45.8038 6.776C45.8038 6.09333 46.0225 5.544 46.4598 5.128C46.8971 4.712 47.4385 4.504 48.0838 4.504C48.7345 4.504 49.2785 4.712 49.7158 5.128C50.1531 5.544 50.3718 6.09333 50.3718 6.776C50.3718 7.45867 50.1505 8.01067 49.7078 8.432C49.2705 8.85333 48.7265 9.064 48.0758 9.064C47.4251 9.064 46.8838 8.85333 46.4518 8.432ZM54.3201 4.568H55.4481V9H54.3201V8.328C54.0374 8.81333 53.5761 9.056 52.9361 9.056C52.4347 9.056 52.0241 8.89067 51.7041 8.56C51.3841 8.224 51.2241 7.76 51.2241 7.168V4.568H52.3441V7.008C52.3441 7.35467 52.4321 7.62133 52.6081 7.808C52.7841 7.99467 53.0241 8.088 53.3281 8.088C53.6321 8.088 53.8721 7.99467 54.0481 7.808C54.2294 7.62133 54.3201 7.35467 54.3201 7.008V4.568ZM58.3669 8.056H58.9029V9H58.1909C57.7375 9 57.3882 8.896 57.1429 8.688C56.8975 8.48 56.7749 8.136 56.7749 7.656V5.488H56.3029V4.568H56.7749V3.472H57.9029V4.568H58.8949V5.488H57.9029V7.656C57.9029 7.8 57.9375 7.904 58.0069 7.968C58.0762 8.02667 58.1962 8.056 58.3669 8.056ZM60.8037 8.36C60.8037 8.54133 60.7397 8.69333 60.6117 8.816C60.489 8.93867 60.337 9 60.1557 9C59.9797 9 59.8304 8.93867 59.7077 8.816C59.585 8.69333 59.5237 8.54133 59.5237 8.36C59.5237 8.17867 59.585 8.02667 59.7077 7.904C59.8304 7.78133 59.9797 7.72 60.1557 7.72C60.337 7.72 60.489 7.78133 60.6117 7.904C60.7397 8.02667 60.8037 8.17867 60.8037 8.36ZM1.112 21.24C0.562667 20.7013 0.288 20.0187 0.288 19.192C0.288 18.3653 0.562667 17.6827 1.112 17.144C1.66667 16.6053 2.344 16.336 3.144 16.336C3.752 16.336 4.29067 16.4907 4.76 16.8C5.23467 17.1093 5.57333 17.544 5.776 18.104H4.424C4.17333 17.6133 3.74667 17.368 3.144 17.368C2.63733 17.368 2.224 17.536 1.904 17.872C1.58933 18.2027 1.432 18.6453 1.432 19.2C1.432 19.7493 1.58933 20.192 1.904 20.528C2.224 20.8587 2.61333 21.024 3.072 21.024C3.536 21.024 3.89867 20.912 4.16 20.688C4.42667 20.4587 4.592 20.152 4.656 19.768H2.8V18.912H5.864V19.768C5.768 20.376 5.46933 20.9093 4.968 21.368C4.46667 21.8213 3.83467 22.048 3.072 22.048C2.31467 22.048 1.66133 21.7787 1.112 21.24ZM7.87644 17.568V18.352C8.1751 17.7867 8.6071 17.504 9.17244 17.504V18.656H8.89244C8.55644 18.656 8.3031 18.7413 8.13244 18.912C7.96177 19.0773 7.87644 19.3653 7.87644 19.776V22H6.74844V17.568H7.87644ZM11.847 22.064C11.2017 22.064 10.6763 21.856 10.271 21.44C9.86567 21.0187 9.663 20.464 9.663 19.776C9.663 19.088 9.86567 18.5387 10.271 18.128C10.6817 17.712 11.2097 17.504 11.855 17.504C12.5057 17.504 13.039 17.7067 13.455 18.112C13.871 18.512 14.079 19.048 14.079 19.72C14.079 19.8747 14.0683 20.0187 14.047 20.152H10.815C10.8417 20.44 10.9483 20.672 11.135 20.848C11.3217 21.024 11.559 21.112 11.847 21.112C12.2363 21.112 12.5243 20.952 12.711 20.632H13.927C13.799 21.0533 13.551 21.3973 13.183 21.664C12.815 21.9307 12.3697 22.064 11.847 22.064ZM12.911 19.424C12.895 19.1307 12.7857 18.896 12.583 18.72C12.3857 18.544 12.1457 18.456 11.863 18.456C11.5803 18.456 11.343 18.544 11.151 18.72C10.9643 18.896 10.8523 19.1307 10.815 19.424H12.911ZM17.7912 20.744C18.0259 20.5093 18.1432 20.1893 18.1432 19.784C18.1432 19.3787 18.0259 19.0613 17.7912 18.832C17.5565 18.5973 17.2819 18.48 16.9672 18.48C16.6525 18.48 16.3779 18.5947 16.1432 18.824C15.9139 19.0533 15.7992 19.3707 15.7992 19.776C15.7992 20.1813 15.9165 20.5013 16.1512 20.736C16.3859 20.9707 16.6579 21.088 16.9672 21.088C17.2819 21.088 17.5565 20.9733 17.7912 20.744ZM15.2472 21.424C14.8525 20.992 14.6552 20.4427 14.6552 19.776C14.6552 19.1093 14.8525 18.5653 15.2472 18.144C15.6419 17.7173 16.1432 17.504 16.7512 17.504C17.3592 17.504 17.8232 17.7547 18.1432 18.256V17.568H19.2632V22H18.1432V21.256C17.8072 21.7947 17.3405 22.064 16.7432 22.064C16.1459 22.064 15.6472 21.8507 15.2472 21.424ZM22.1794 21.056H22.7154V22H22.0034C21.55 22 21.2007 21.896 20.9554 21.688C20.71 21.48 20.5874 21.136 20.5874 20.656V18.488H20.1154V17.568H20.5874V16.472H21.7154V17.568H22.7074V18.488H21.7154V20.656C21.7154 20.8 21.75 20.904 21.8194 20.968C21.8887 21.0267 22.0087 21.056 22.1794 21.056ZM25.9906 17.568H27.1186V22.768C27.1186 23.248 26.996 23.592 26.7506 23.8C26.5053 24.008 26.156 24.112 25.7026 24.112H25.2066V23.16H25.5266C25.6973 23.16 25.8173 23.128 25.8866 23.064C25.956 23.0053 25.9906 22.9067 25.9906 22.768V17.568ZM27.2386 16.44C27.2386 16.632 27.172 16.7947 27.0386 16.928C26.9053 17.0613 26.7426 17.128 26.5506 17.128C26.364 17.128 26.204 17.0613 26.0706 16.928C25.9373 16.7947 25.8706 16.632 25.8706 16.44C25.8706 16.248 25.9373 16.0853 26.0706 15.952C26.204 15.8187 26.364 15.752 26.5506 15.752C26.7426 15.752 26.9053 15.8187 27.0386 15.952C27.172 16.0853 27.2386 16.248 27.2386 16.44ZM30.2868 21.112C30.6014 21.112 30.8707 20.9973 31.0947 20.768C31.3241 20.5333 31.4388 20.2053 31.4388 19.784C31.4388 19.3573 31.3268 19.0293 31.1028 18.8C30.8788 18.5707 30.6068 18.456 30.2868 18.456C29.9721 18.456 29.7054 18.5707 29.4868 18.8C29.2681 19.0293 29.1588 19.3573 29.1588 19.784C29.1588 20.2107 29.2681 20.5387 29.4868 20.768C29.7054 20.9973 29.9721 21.112 30.2868 21.112ZM28.6628 21.432C28.2308 21.0107 28.0148 20.4587 28.0148 19.776C28.0148 19.0933 28.2334 18.544 28.6708 18.128C29.1081 17.712 29.6494 17.504 30.2947 17.504C30.9454 17.504 31.4894 17.712 31.9268 18.128C32.3641 18.544 32.5827 19.0933 32.5827 19.776C32.5827 20.4587 32.3614 21.0107 31.9187 21.432C31.4814 21.8533 30.9374 22.064 30.2868 22.064C29.6361 22.064 29.0948 21.8533 28.6628 21.432ZM36.587 20.736C36.8217 20.5013 36.939 20.1813 36.939 19.776C36.939 19.3707 36.8217 19.0533 36.587 18.824C36.3577 18.5947 36.0857 18.48 35.771 18.48C35.4563 18.48 35.1817 18.5973 34.947 18.832C34.7177 19.0613 34.603 19.3787 34.603 19.784C34.603 20.1893 34.7177 20.5093 34.947 20.744C35.1817 20.9733 35.4563 21.088 35.771 21.088C36.0857 21.088 36.3577 20.9707 36.587 20.736ZM34.603 18.256C34.9177 17.7547 35.379 17.504 35.987 17.504C36.595 17.504 37.0963 17.7173 37.491 18.144C37.8857 18.5653 38.083 19.112 38.083 19.784C38.083 20.4507 37.8857 20.9973 37.491 21.424C37.0963 21.8507 36.5977 22.064 35.995 22.064C35.3977 22.064 34.9337 21.7947 34.603 21.256V22H33.475V16.08H34.603V18.256ZM41.1096 20.232C41.1096 19.3253 41.3416 18.5173 41.8056 17.808C42.2696 17.0933 42.8963 16.544 43.6856 16.16C44.475 15.7707 45.3523 15.576 46.3176 15.576C47.5123 15.576 48.4696 15.896 49.1896 16.536C49.915 17.1707 50.2776 18.0347 50.2776 19.128C50.2776 19.9493 50.0323 20.6453 49.5416 21.216C49.051 21.7813 48.491 22.064 47.8616 22.064C47.5043 22.064 47.2296 21.976 47.0376 21.8C46.8456 21.624 46.7363 21.3813 46.7096 21.072C46.331 21.7333 45.803 22.064 45.1256 22.064C44.5816 22.064 44.1363 21.848 43.7896 21.416C43.4483 20.984 43.323 20.4347 43.4136 19.768C43.5043 19.1013 43.7923 18.56 44.2776 18.144C44.7683 17.7227 45.3283 17.512 45.9576 17.512C46.587 17.512 47.075 17.704 47.4216 18.088C47.7736 18.472 47.907 18.976 47.8216 19.6L47.6616 20.688C47.6296 20.96 47.723 21.096 47.9416 21.096C48.2083 21.096 48.4723 20.912 48.7336 20.544C48.995 20.1707 49.1256 19.6987 49.1256 19.128C49.1256 18.3227 48.8616 17.6773 48.3336 17.192C47.8056 16.7067 47.0883 16.464 46.1816 16.464C45.0456 16.464 44.107 16.8267 43.3656 17.552C42.6243 18.2773 42.2536 19.1707 42.2536 20.232C42.2536 21.1387 42.5416 21.856 43.1176 22.384C43.699 22.9173 44.5096 23.1893 45.5496 23.2L45.3256 24.088C44.0563 24.0773 43.035 23.7227 42.2616 23.024C41.4936 22.3307 41.1096 21.4 41.1096 20.232ZM44.5096 19.792C44.4563 20.1813 44.5203 20.496 44.7016 20.736C44.8883 20.976 45.1283 21.096 45.4216 21.096C45.7203 21.096 45.995 20.976 46.2456 20.736C46.5016 20.496 46.6563 20.1787 46.7096 19.784C46.7683 19.3893 46.7043 19.0747 46.5176 18.84C46.331 18.6 46.091 18.48 45.7976 18.48C45.5043 18.48 45.2296 18.6 44.9736 18.84C44.723 19.08 44.5683 19.3973 44.5096 19.792ZM50.6732 17.568H51.8732L53.0172 21.032L54.1532 17.568H55.3532L53.7212 22H52.3052L50.6732 17.568ZM58.8303 20.744C59.0649 20.5093 59.1823 20.1893 59.1823 19.784C59.1823 19.3787 59.0649 19.0613 58.8303 18.832C58.5956 18.5973 58.3209 18.48 58.0062 18.48C57.6916 18.48 57.4169 18.5947 57.1823 18.824C56.9529 19.0533 56.8383 19.3707 56.8383 19.776C56.8383 20.1813 56.9556 20.5013 57.1903 20.736C57.4249 20.9707 57.6969 21.088 58.0062 21.088C58.3209 21.088 58.5956 20.9733 58.8303 20.744ZM56.2862 21.424C55.8916 20.992 55.6942 20.4427 55.6942 19.776C55.6942 19.1093 55.8916 18.5653 56.2862 18.144C56.6809 17.7173 57.1823 17.504 57.7903 17.504C58.3983 17.504 58.8623 17.7547 59.1823 18.256V17.568H60.3022V22H59.1823V21.256C58.8463 21.7947 58.3796 22.064 57.7822 22.064C57.1849 22.064 56.6863 21.8507 56.2862 21.424ZM61.2504 18.864C61.2504 18.48 61.4131 18.1573 61.7384 17.896C62.0638 17.6347 62.4958 17.504 63.0344 17.504C63.5731 17.504 64.0051 17.6347 64.3304 17.896C64.6558 18.152 64.8291 18.5013 64.8504 18.944H63.6984C63.6664 18.5707 63.4371 18.384 63.0104 18.384C62.7971 18.384 62.6318 18.4267 62.5144 18.512C62.3971 18.5973 62.3384 18.7147 62.3384 18.864C62.3384 19.0133 62.4264 19.1307 62.6024 19.216C62.7784 19.3013 62.9918 19.368 63.2424 19.416C63.4931 19.464 63.7411 19.5253 63.9864 19.6C64.2371 19.6693 64.4504 19.7973 64.6264 19.984C64.8024 20.1653 64.8904 20.408 64.8904 20.712C64.8904 21.112 64.7198 21.4373 64.3784 21.688C64.0424 21.9387 63.6104 22.064 63.0824 22.064C62.5598 22.064 62.1304 21.9413 61.7944 21.696C61.4584 21.4453 61.2744 21.088 61.2424 20.624H62.3944C62.4371 20.9973 62.6744 21.184 63.1064 21.184C63.3144 21.184 63.4824 21.1387 63.6104 21.048C63.7384 20.952 63.8024 20.8293 63.8024 20.68C63.8024 20.5253 63.7144 20.4053 63.5384 20.32C63.3624 20.2293 63.1491 20.16 62.8984 20.112C62.6478 20.064 62.3971 20.0053 62.1464 19.936C61.9011 19.8667 61.6904 19.744 61.5144 19.568C61.3384 19.3867 61.2504 19.152 61.2504 18.864ZM67.042 21.92L65.306 17.568H66.57L67.698 20.72L68.89 17.568H70.066L67.298 24.096H66.122L67.042 21.92ZM70.725 22V16.08H71.853V22H70.725ZM76.4756 21.36C76.4756 21.5413 76.4116 21.6933 76.2836 21.816C76.1609 21.9387 76.0089 22 75.8276 22C75.6516 22 75.5022 21.9387 75.3796 21.816C75.2569 21.6933 75.1956 21.5413 75.1956 21.36C75.1956 21.1787 75.2569 21.0267 75.3796 20.904C75.5022 20.7813 75.6516 20.72 75.8276 20.72C76.0089 20.72 76.1609 20.7813 76.2836 20.904C76.4116 21.0267 76.4756 21.1787 76.4756 21.36Z" transform="translate(49 283)" fill="white"/>
<rect width="2" height="33" transform="translate(37 276)" fill="#5A5D62"/>
<g filter="url(#filter1_d)">
<rect width="183" height="65" rx="10" transform="translate(181 14)" fill="url(#paint19_linear)"/>
</g>
<path d="M0.042 3.676H0.942L1.8 6.274L2.652 3.676H3.552L2.328 7H1.266L0.042 3.676ZM6.1598 6.058C6.3358 5.882 6.4238 5.642 6.4238 5.338C6.4238 5.034 6.3358 4.796 6.1598 4.624C5.9838 4.448 5.7778 4.36 5.5418 4.36C5.3058 4.36 5.0998 4.446 4.9238 4.618C4.7518 4.79 4.6658 5.028 4.6658 5.332C4.6658 5.636 4.7538 5.876 4.9298 6.052C5.1058 6.228 5.3098 6.316 5.5418 6.316C5.7778 6.316 5.9838 6.23 6.1598 6.058ZM4.2518 6.568C3.9558 6.244 3.8078 5.832 3.8078 5.332C3.8078 4.832 3.9558 4.424 4.2518 4.108C4.5478 3.788 4.9238 3.628 5.3798 3.628C5.8358 3.628 6.1838 3.816 6.4238 4.192V3.676H7.2638V7H6.4238V6.442C6.1718 6.846 5.8218 7.048 5.3738 7.048C4.9258 7.048 4.5518 6.888 4.2518 6.568ZM7.97494 4.648C7.97494 4.36 8.09694 4.118 8.34094 3.922C8.58494 3.726 8.90894 3.628 9.31294 3.628C9.71694 3.628 10.0409 3.726 10.2849 3.922C10.5289 4.114 10.6589 4.376 10.6749 4.708H9.81094C9.78694 4.428 9.61494 4.288 9.29494 4.288C9.13494 4.288 9.01094 4.32 8.92294 4.384C8.83494 4.448 8.79094 4.536 8.79094 4.648C8.79094 4.76 8.85694 4.848 8.98894 4.912C9.12094 4.976 9.28094 5.026 9.46894 5.062C9.65694 5.098 9.84294 5.144 10.0269 5.2C10.2149 5.252 10.3749 5.348 10.5069 5.488C10.6389 5.624 10.7049 5.806 10.7049 6.034C10.7049 6.334 10.5769 6.578 10.3209 6.766C10.0689 6.954 9.74494 7.048 9.34894 7.048C8.95694 7.048 8.63494 6.956 8.38294 6.772C8.13094 6.584 7.99294 6.316 7.96894 5.968H8.83294C8.86494 6.248 9.04294 6.388 9.36694 6.388C9.52294 6.388 9.64894 6.354 9.74494 6.286C9.84094 6.214 9.88894 6.122 9.88894 6.01C9.88894 5.894 9.82294 5.804 9.69094 5.74C9.55894 5.672 9.39894 5.62 9.21094 5.584C9.02294 5.548 8.83494 5.504 8.64694 5.452C8.46294 5.4 8.30494 5.308 8.17294 5.176C8.04094 5.04 7.97494 4.864 7.97494 4.648ZM12.3186 6.94L11.0166 3.676H11.9646L12.8106 6.04L13.7046 3.676H14.5866L12.5106 8.572H11.6286L12.3186 6.94ZM15.0809 7V2.56H15.9269V7H15.0809Z" transform="translate(208 29)" fill="#006DFF"/>
<path opacity="0.5" d="M0.336 3.772C0.348 3.38 0.486 3.076 0.75 2.86C1.018 2.64 1.366 2.53 1.794 2.53C2.226 2.53 2.564 2.64 2.808 2.86C3.052 3.076 3.174 3.35 3.174 3.682C3.174 3.938 3.108 4.154 2.976 4.33C2.844 4.502 2.696 4.616 2.532 4.672V4.696C3.012 4.86 3.252 5.222 3.252 5.782C3.252 6.154 3.124 6.454 2.868 6.682C2.612 6.91 2.26 7.024 1.812 7.024C1.364 7.024 0.998 6.91 0.714 6.682C0.43 6.454 0.282 6.12 0.27 5.68H1.086C1.094 5.876 1.16 6.034 1.284 6.154C1.412 6.27 1.582 6.328 1.794 6.328C2.006 6.328 2.166 6.272 2.274 6.16C2.386 6.044 2.442 5.88 2.442 5.668C2.442 5.456 2.366 5.3 2.214 5.2C2.066 5.096 1.83 5.044 1.506 5.044H1.332V4.354H1.506C2.074 4.354 2.358 4.164 2.358 3.784C2.358 3.62 2.306 3.49 2.202 3.394C2.098 3.298 1.95 3.25 1.758 3.25C1.566 3.25 1.422 3.304 1.326 3.412C1.23 3.52 1.174 3.64 1.158 3.772H0.336ZM4.8578 4.402C4.7658 4.494 4.6518 4.54 4.5158 4.54C4.3798 4.54 4.2658 4.494 4.1738 4.402C4.0818 4.31 4.0358 4.198 4.0358 4.066C4.0358 3.93 4.0818 3.816 4.1738 3.724C4.2658 3.628 4.3798 3.58 4.5158 3.58C4.6518 3.58 4.7658 3.628 4.8578 3.724C4.9498 3.816 4.9958 3.93 4.9958 4.066C4.9958 4.198 4.9498 4.31 4.8578 4.402ZM4.8578 6.862C4.7658 6.954 4.6518 7 4.5158 7C4.3798 7 4.2658 6.954 4.1738 6.862C4.0818 6.77 4.0358 6.656 4.0358 6.52C4.0358 6.384 4.0818 6.27 4.1738 6.178C4.2658 6.086 4.3798 6.04 4.5158 6.04C4.6518 6.04 4.7658 6.086 4.8578 6.178C4.9498 6.27 4.9958 6.384 4.9958 6.52C4.9958 6.656 4.9498 6.77 4.8578 6.862ZM7.90866 5.416V3.592L6.70866 5.416H7.90866ZM7.85466 7V6.148H5.76066V5.488L7.71666 2.68H8.69466V5.416H9.22266V6.148H8.69466V7H7.85466ZM9.98545 2.614H12.6675V3.352H10.7535V4.348C10.8375 4.256 10.9535 4.18 11.1015 4.12C11.2495 4.056 11.4295 4.024 11.6415 4.024C11.8535 4.024 12.0535 4.068 12.2415 4.156C12.4335 4.244 12.5795 4.362 12.6795 4.51C12.8795 4.798 12.9795 5.118 12.9795 5.47C12.9795 5.934 12.8455 6.306 12.5775 6.586C12.3135 6.862 11.9455 7 11.4735 7C11.0015 7 10.6295 6.89 10.3575 6.67C10.0895 6.446 9.93145 6.154 9.88345 5.794H10.7115C10.7475 5.95 10.8295 6.074 10.9575 6.166C11.0895 6.258 11.2635 6.304 11.4795 6.304C11.6995 6.304 11.8695 6.23 11.9895 6.082C12.1095 5.934 12.1695 5.738 12.1695 5.494C12.1695 5.25 12.1075 5.062 11.9835 4.93C11.8635 4.798 11.7015 4.732 11.4975 4.732C11.1135 4.732 10.8775 4.886 10.7895 5.194H9.98545V2.614ZM18.2856 4.9C18.1776 5.032 18.0196 5.138 17.8116 5.218C17.6076 5.294 17.3676 5.332 17.0916 5.332H16.3956V7H15.5496V2.812H17.0916C17.5756 2.812 17.9476 2.934 18.2076 3.178C18.4716 3.418 18.6036 3.702 18.6036 4.03C18.6036 4.358 18.4976 4.648 18.2856 4.9ZM16.3956 4.684H17.0916C17.3036 4.684 17.4656 4.63 17.5776 4.522C17.6896 4.41 17.7456 4.26 17.7456 4.072C17.7456 3.884 17.6896 3.736 17.5776 3.628C17.4656 3.516 17.3036 3.46 17.0916 3.46H16.3956V4.684ZM23.807 2.812V7H22.967V4.354L21.827 7H21.221L20.087 4.366V7H19.241V2.812H20.183L21.527 5.914L22.871 2.812H23.807Z" transform="translate(228 29)" fill="#9399A3"/>
<path d="M4.128 3.416H5.256V9H4.128V6.608H1.728V9H0.6V3.416H1.728V5.744H4.128V3.416ZM8.33137 9.064C7.68604 9.064 7.16071 8.856 6.75538 8.44C6.35004 8.01867 6.14737 7.464 6.14737 6.776C6.14737 6.088 6.35004 5.53867 6.75538 5.128C7.16604 4.712 7.69404 4.504 8.33938 4.504C8.99004 4.504 9.52338 4.70667 9.93937 5.112C10.3554 5.512 10.5634 6.048 10.5634 6.72C10.5634 6.87467 10.5527 7.01867 10.5314 7.152H7.29938C7.32604 7.44 7.43271 7.672 7.61937 7.848C7.80604 8.024 8.04337 8.112 8.33137 8.112C8.72071 8.112 9.00871 7.952 9.19537 7.632H10.4114C10.2834 8.05333 10.0354 8.39733 9.66738 8.664C9.29938 8.93067 8.85404 9.064 8.33137 9.064ZM9.39538 6.424C9.37938 6.13067 9.27004 5.896 9.06737 5.72C8.87004 5.544 8.63004 5.456 8.34737 5.456C8.06471 5.456 7.82737 5.544 7.63538 5.72C7.44871 5.896 7.33671 6.13067 7.29938 6.424H9.39538ZM12.6436 8.92L10.9076 4.568H12.1716L13.2996 7.72L14.4916 4.568H15.6676L12.8996 11.096H11.7236L12.6436 8.92ZM19.005 8.424C18.6103 7.992 18.413 7.44267 18.413 6.776C18.413 6.10933 18.6103 5.56533 19.005 5.144C19.3997 4.71733 19.901 4.504 20.509 4.504C21.117 4.504 21.581 4.75467 21.901 5.256V4.568H23.021V9.032C23.021 9.66667 22.8343 10.184 22.461 10.584C22.0877 10.9893 21.5623 11.192 20.885 11.192C20.213 11.192 19.677 11.0507 19.277 10.768C18.8823 10.4907 18.6583 10.0933 18.605 9.576H19.709C19.7783 9.77333 19.9117 9.928 20.109 10.04C20.3063 10.1573 20.5543 10.216 20.853 10.216C21.1517 10.216 21.3997 10.1173 21.597 9.92C21.7997 9.72267 21.901 9.42667 21.901 9.032V8.256C21.565 8.79467 21.0983 9.064 20.501 9.064C19.9037 9.064 19.405 8.85067 19.005 8.424ZM21.549 7.744C21.7837 7.50933 21.901 7.18933 21.901 6.784C21.901 6.37867 21.7837 6.06133 21.549 5.832C21.3143 5.59733 21.0397 5.48 20.725 5.48C20.4103 5.48 20.1357 5.59467 19.901 5.824C19.6717 6.05333 19.557 6.37067 19.557 6.776C19.557 7.18133 19.6743 7.50133 19.909 7.736C20.1437 7.97067 20.4157 8.088 20.725 8.088C21.0397 8.088 21.3143 7.97333 21.549 7.744ZM27.2732 4.568H28.4012V9H27.2732V8.328C26.9905 8.81333 26.5292 9.056 25.8892 9.056C25.3879 9.056 24.9772 8.89067 24.6572 8.56C24.3372 8.224 24.1772 7.76 24.1772 7.168V4.568H25.2972V7.008C25.2972 7.35467 25.3852 7.62133 25.5612 7.808C25.7372 7.99467 25.9772 8.088 26.2812 8.088C26.5852 8.088 26.8252 7.99467 27.0012 7.808C27.1825 7.62133 27.2732 7.35467 27.2732 7.008V4.568ZM30.792 8.92L29.056 4.568H30.32L31.448 7.72L32.64 4.568H33.816L31.048 11.096H29.872L30.792 8.92ZM34.227 5.864C34.227 5.48 34.3897 5.15733 34.715 4.896C35.0403 4.63467 35.4723 4.504 36.011 4.504C36.5497 4.504 36.9817 4.63467 37.307 4.896C37.6323 5.152 37.8057 5.50133 37.827 5.944H36.675C36.643 5.57067 36.4137 5.384 35.987 5.384C35.7737 5.384 35.6083 5.42667 35.491 5.512C35.3737 5.59733 35.315 5.71467 35.315 5.864C35.315 6.01333 35.403 6.13067 35.579 6.216C35.755 6.30133 35.9683 6.368 36.219 6.416C36.4697 6.464 36.7177 6.52533 36.963 6.6C37.2137 6.66933 37.427 6.79733 37.603 6.984C37.779 7.16533 37.867 7.408 37.867 7.712C37.867 8.112 37.6963 8.43733 37.355 8.688C37.019 8.93867 36.587 9.064 36.059 9.064C35.5363 9.064 35.107 8.94133 34.771 8.696C34.435 8.44533 34.251 8.088 34.219 7.624H35.371C35.4137 7.99733 35.651 8.184 36.083 8.184C36.291 8.184 36.459 8.13867 36.587 8.048C36.715 7.952 36.779 7.82933 36.779 7.68C36.779 7.52533 36.691 7.40533 36.515 7.32C36.339 7.22933 36.1257 7.16 35.875 7.112C35.6243 7.064 35.3737 7.00533 35.123 6.936C34.8777 6.86667 34.667 6.744 34.491 6.568C34.315 6.38667 34.227 6.152 34.227 5.864ZM40.6346 8.36C40.6346 8.54133 40.5706 8.69333 40.4426 8.816C40.3199 8.93867 40.1679 9 39.9866 9C39.8106 9 39.6586 8.93867 39.5306 8.816C39.4079 8.69333 39.3466 8.54133 39.3466 8.36C39.3466 8.17867 39.4079 8.02667 39.5306 7.904C39.6586 7.78133 39.8106 7.72 39.9866 7.72C40.1679 7.72 40.3199 7.78133 40.4426 7.904C40.5706 8.02667 40.6346 8.17867 40.6346 8.36ZM39.4906 7.12L39.3626 2.992H40.5626L40.4346 7.12H39.4906ZM2.656 20.336V16.416H3.776V20.336C3.776 20.8747 3.61333 21.296 3.288 21.6C2.968 21.904 2.552 22.056 2.04 22.056C1.528 22.056 1.10933 21.904 0.784 21.6C0.458667 21.296 0.296 20.8747 0.296 20.336H1.424C1.42933 20.5653 1.48533 20.744 1.592 20.872C1.69867 20.9947 1.848 21.056 2.04 21.056C2.232 21.056 2.38133 20.9947 2.488 20.872C2.6 20.744 2.656 20.5653 2.656 20.336ZM8.281 17.568H9.409V22H8.281V21.328C7.99833 21.8133 7.537 22.056 6.897 22.056C6.39567 22.056 5.985 21.8907 5.665 21.56C5.345 21.224 5.185 20.76 5.185 20.168V17.568H6.305V20.008C6.305 20.3547 6.393 20.6213 6.569 20.808C6.745 20.9947 6.985 21.088 7.289 21.088C7.593 21.088 7.833 20.9947 8.009 20.808C8.19033 20.6213 8.281 20.3547 8.281 20.008V17.568ZM10.3598 18.864C10.3598 18.48 10.5225 18.1573 10.8478 17.896C11.1731 17.6347 11.6051 17.504 12.1438 17.504C12.6825 17.504 13.1145 17.6347 13.4398 17.896C13.7651 18.152 13.9385 18.5013 13.9598 18.944H12.8078C12.7758 18.5707 12.5465 18.384 12.1198 18.384C11.9065 18.384 11.7411 18.4267 11.6238 18.512C11.5065 18.5973 11.4478 18.7147 11.4478 18.864C11.4478 19.0133 11.5358 19.1307 11.7118 19.216C11.8878 19.3013 12.1011 19.368 12.3518 19.416C12.6025 19.464 12.8505 19.5253 13.0958 19.6C13.3465 19.6693 13.5598 19.7973 13.7358 19.984C13.9118 20.1653 13.9998 20.408 13.9998 20.712C13.9998 21.112 13.8291 21.4373 13.4878 21.688C13.1518 21.9387 12.7198 22.064 12.1918 22.064C11.6691 22.064 11.2398 21.9413 10.9038 21.696C10.5678 21.4453 10.3838 21.088 10.3518 20.624H11.5038C11.5465 20.9973 11.7838 21.184 12.2158 21.184C12.4238 21.184 12.5918 21.1387 12.7198 21.048C12.8478 20.952 12.9118 20.8293 12.9118 20.68C12.9118 20.5253 12.8238 20.4053 12.6478 20.32C12.4718 20.2293 12.2585 20.16 12.0078 20.112C11.7571 20.064 11.5065 20.0053 11.2558 19.936C11.0105 19.8667 10.7998 19.744 10.6238 19.568C10.4478 19.3867 10.3598 19.152 10.3598 18.864ZM16.6794 21.056H17.2154V22H16.5034C16.05 22 15.7007 21.896 15.4554 21.688C15.21 21.48 15.0874 21.136 15.0874 20.656V18.488H14.6154V17.568H15.0874V16.472H16.2154V17.568H17.2074V18.488H16.2154V20.656C16.2154 20.8 16.25 20.904 16.3194 20.968C16.3887 21.0267 16.5087 21.056 16.6794 21.056ZM23.3146 20.744C23.5493 20.5093 23.6666 20.1893 23.6666 19.784C23.6666 19.3787 23.5493 19.0613 23.3146 18.832C23.08 18.5973 22.8053 18.48 22.4906 18.48C22.176 18.48 21.9013 18.5947 21.6666 18.824C21.4373 19.0533 21.3226 19.3707 21.3226 19.776C21.3226 20.1813 21.44 20.5013 21.6746 20.736C21.9093 20.9707 22.1813 21.088 22.4906 21.088C22.8053 21.088 23.08 20.9733 23.3146 20.744ZM20.7706 21.424C20.376 20.992 20.1786 20.4427 20.1786 19.776C20.1786 19.1093 20.376 18.5653 20.7706 18.144C21.1653 17.7173 21.6666 17.504 22.2746 17.504C22.8826 17.504 23.3466 17.7547 23.6666 18.256V16.08H24.7866V22H23.6666V21.256C23.3306 21.7947 22.864 22.064 22.2666 22.064C21.6693 22.064 21.1706 21.8507 20.7706 21.424ZM27.8548 22.064C27.2095 22.064 26.6841 21.856 26.2788 21.44C25.8735 21.0187 25.6708 20.464 25.6708 19.776C25.6708 19.088 25.8735 18.5387 26.2788 18.128C26.6895 17.712 27.2175 17.504 27.8628 17.504C28.5135 17.504 29.0468 17.7067 29.4628 18.112C29.8788 18.512 30.0868 19.048 30.0868 19.72C30.0868 19.8747 30.0761 20.0187 30.0548 20.152H26.8228C26.8495 20.44 26.9561 20.672 27.1428 20.848C27.3295 21.024 27.5668 21.112 27.8548 21.112C28.2441 21.112 28.5321 20.952 28.7188 20.632H29.9348C29.8068 21.0533 29.5588 21.3973 29.1908 21.664C28.8228 21.9307 28.3775 22.064 27.8548 22.064ZM28.9188 19.424C28.9028 19.1307 28.7935 18.896 28.5908 18.72C28.3935 18.544 28.1535 18.456 27.8708 18.456C27.5881 18.456 27.3508 18.544 27.1588 18.72C26.9721 18.896 26.8601 19.1307 26.8228 19.424H28.9188ZM34.087 20.736C34.3217 20.5013 34.439 20.1813 34.439 19.776C34.439 19.3707 34.3217 19.0533 34.087 18.824C33.8577 18.5947 33.5857 18.48 33.271 18.48C32.9563 18.48 32.6817 18.5973 32.447 18.832C32.2177 19.0613 32.103 19.3787 32.103 19.784C32.103 20.1893 32.2177 20.5093 32.447 20.744C32.6817 20.9733 32.9563 21.088 33.271 21.088C33.5857 21.088 33.8577 20.9707 34.087 20.736ZM32.103 18.256C32.4177 17.7547 32.879 17.504 33.487 17.504C34.095 17.504 34.5963 17.7173 34.991 18.144C35.3857 18.5653 35.583 19.112 35.583 19.784C35.583 20.4507 35.3857 20.9973 34.991 21.424C34.5963 21.8507 34.0977 22.064 33.495 22.064C32.8977 22.064 32.4337 21.7947 32.103 21.256V24.112H30.975V17.568H32.103V18.256ZM36.4672 22V16.08H37.5952V22H36.4672ZM40.7633 21.112C41.078 21.112 41.3473 20.9973 41.5713 20.768C41.8006 20.5333 41.9153 20.2053 41.9153 19.784C41.9153 19.3573 41.8033 19.0293 41.5793 18.8C41.3553 18.5707 41.0833 18.456 40.7633 18.456C40.4486 18.456 40.182 18.5707 39.9633 18.8C39.7446 19.0293 39.6353 19.3573 39.6353 19.784C39.6353 20.2107 39.7446 20.5387 39.9633 20.768C40.182 20.9973 40.4486 21.112 40.7633 21.112ZM39.1393 21.432C38.7073 21.0107 38.4913 20.4587 38.4913 19.776C38.4913 19.0933 38.71 18.544 39.1473 18.128C39.5846 17.712 40.126 17.504 40.7713 17.504C41.422 17.504 41.966 17.712 42.4033 18.128C42.8406 18.544 43.0593 19.0933 43.0593 19.776C43.0593 20.4587 42.838 21.0107 42.3953 21.432C41.958 21.8533 41.414 22.064 40.7633 22.064C40.1126 22.064 39.5713 21.8533 39.1393 21.432ZM45.1436 21.92L43.4076 17.568H44.6716L45.7996 20.72L46.9916 17.568H48.1676L45.3996 24.096H44.2236L45.1436 21.92ZM50.6986 22.064C50.0532 22.064 49.5279 21.856 49.1226 21.44C48.7172 21.0187 48.5146 20.464 48.5146 19.776C48.5146 19.088 48.7172 18.5387 49.1226 18.128C49.5332 17.712 50.0612 17.504 50.7066 17.504C51.3572 17.504 51.8906 17.7067 52.3066 18.112C52.7226 18.512 52.9306 19.048 52.9306 19.72C52.9306 19.8747 52.9199 20.0187 52.8986 20.152H49.6666C49.6932 20.44 49.7999 20.672 49.9866 20.848C50.1732 21.024 50.4106 21.112 50.6986 21.112C51.0879 21.112 51.3759 20.952 51.5626 20.632H52.7786C52.6506 21.0533 52.4026 21.3973 52.0346 21.664C51.6666 21.9307 51.2212 22.064 50.6986 22.064ZM51.7626 19.424C51.7466 19.1307 51.6372 18.896 51.4346 18.72C51.2372 18.544 50.9972 18.456 50.7146 18.456C50.4319 18.456 50.1946 18.544 50.0026 18.72C49.8159 18.896 49.7039 19.1307 49.6666 19.424H51.7626ZM56.6428 20.744C56.8774 20.5093 56.9948 20.1893 56.9948 19.784C56.9948 19.3787 56.8774 19.0613 56.6428 18.832C56.4081 18.5973 56.1334 18.48 55.8187 18.48C55.5041 18.48 55.2294 18.5947 54.9948 18.824C54.7654 19.0533 54.6508 19.3707 54.6508 19.776C54.6508 20.1813 54.7681 20.5013 55.0028 20.736C55.2374 20.9707 55.5094 21.088 55.8187 21.088C56.1334 21.088 56.4081 20.9733 56.6428 20.744ZM54.0987 21.424C53.7041 20.992 53.5067 20.4427 53.5067 19.776C53.5067 19.1093 53.7041 18.5653 54.0987 18.144C54.4934 17.7173 54.9948 17.504 55.6028 17.504C56.2108 17.504 56.6748 17.7547 56.9948 18.256V16.08H58.1147V22H56.9948V21.256C56.6588 21.7947 56.1921 22.064 55.5947 22.064C54.9974 22.064 54.4988 21.8507 54.0987 21.424ZM63.4294 21.056H63.9654V22H63.2534C62.8 22 62.4507 21.896 62.2054 21.688C61.96 21.48 61.8374 21.136 61.8374 20.656V18.488H61.3654V17.568H61.8374V16.472H62.9654V17.568H63.9574V18.488H62.9654V20.656C62.9654 20.8 63 20.904 63.0694 20.968C63.1387 21.0267 63.2587 21.056 63.4294 21.056ZM65.9702 16.08V18.232C66.2529 17.7467 66.7115 17.504 67.3462 17.504C67.8529 17.504 68.2662 17.672 68.5862 18.008C68.9062 18.3387 69.0662 18.8 69.0662 19.392V22H67.9462V19.552C67.9462 19.2053 67.8582 18.9413 67.6822 18.76C67.5062 18.5733 67.2662 18.48 66.9622 18.48C66.6582 18.48 66.4155 18.5733 66.2342 18.76C66.0582 18.9413 65.9702 19.2053 65.9702 19.552V22H64.8422V16.08H65.9702ZM72.097 22.064C71.4517 22.064 70.9263 21.856 70.521 21.44C70.1157 21.0187 69.913 20.464 69.913 19.776C69.913 19.088 70.1157 18.5387 70.521 18.128C70.9317 17.712 71.4597 17.504 72.105 17.504C72.7557 17.504 73.289 17.7067 73.705 18.112C74.121 18.512 74.329 19.048 74.329 19.72C74.329 19.8747 74.3183 20.0187 74.297 20.152H71.065C71.0917 20.44 71.1983 20.672 71.385 20.848C71.5717 21.024 71.809 21.112 72.097 21.112C72.4863 21.112 72.7743 20.952 72.961 20.632H74.177C74.049 21.0533 73.801 21.3973 73.433 21.664C73.065 21.9307 72.6197 22.064 72.097 22.064ZM73.161 19.424C73.145 19.1307 73.0357 18.896 72.833 18.72C72.6357 18.544 72.3957 18.456 72.113 18.456C71.8303 18.456 71.593 18.544 71.401 18.72C71.2143 18.896 71.1023 19.1307 71.065 19.424H73.161ZM78.7436 17.568V18.232C79.0263 17.7467 79.485 17.504 80.1196 17.504C80.6263 17.504 81.0396 17.672 81.3596 18.008C81.6796 18.3387 81.8396 18.8 81.8396 19.392V22H80.7196V19.552C80.7196 19.2053 80.6316 18.9413 80.4556 18.76C80.2796 18.5733 80.0396 18.48 79.7356 18.48C79.4316 18.48 79.189 18.5733 79.0076 18.76C78.8316 18.9413 78.7436 19.2053 78.7436 19.552V22H77.6156V17.568H78.7436ZM84.8704 22.064C84.2251 22.064 83.6998 21.856 83.2944 21.44C82.8891 21.0187 82.6864 20.464 82.6864 19.776C82.6864 19.088 82.8891 18.5387 83.2944 18.128C83.7051 17.712 84.2331 17.504 84.8784 17.504C85.5291 17.504 86.0624 17.7067 86.4784 18.112C86.8944 18.512 87.1024 19.048 87.1024 19.72C87.1024 19.8747 87.0918 20.0187 87.0704 20.152H83.8384C83.8651 20.44 83.9718 20.672 84.1584 20.848C84.3451 21.024 84.5824 21.112 84.8704 21.112C85.2598 21.112 85.5478 20.952 85.7344 20.632H86.9504C86.8224 21.0533 86.5744 21.3973 86.2064 21.664C85.8384 21.9307 85.3931 22.064 84.8704 22.064ZM85.9344 19.424C85.9184 19.1307 85.8091 18.896 85.6064 18.72C85.4091 18.544 85.1691 18.456 84.8864 18.456C84.6038 18.456 84.3664 18.544 84.1744 18.72C83.9878 18.896 83.8758 19.1307 83.8384 19.424H85.9344ZM93.0146 17.568H94.0946L92.7346 22H91.5346L90.7746 19.024L90.0066 22H88.8066L87.4466 17.568H88.5826L89.3986 20.936L90.2146 17.568H91.3986L92.1986 20.928L93.0146 17.568ZM102.163 17.568H103.243L101.883 22H100.683L99.9231 19.024L99.1551 22H97.9551L96.5951 17.568H97.7311L98.5471 20.936L99.3631 17.568H100.547L101.347 20.928L102.163 17.568ZM105.761 22.064C105.116 22.064 104.59 21.856 104.185 21.44C103.78 21.0187 103.577 20.464 103.577 19.776C103.577 19.088 103.78 18.5387 104.185 18.128C104.596 17.712 105.124 17.504 105.769 17.504C106.42 17.504 106.953 17.7067 107.369 18.112C107.785 18.512 107.993 19.048 107.993 19.72C107.993 19.8747 107.982 20.0187 107.961 20.152H104.729C104.756 20.44 104.862 20.672 105.049 20.848C105.236 21.024 105.473 21.112 105.761 21.112C106.15 21.112 106.438 20.952 106.625 20.632H107.841C107.713 21.0533 107.465 21.3973 107.097 21.664C106.729 21.9307 106.284 22.064 105.761 22.064ZM106.825 19.424C106.809 19.1307 106.7 18.896 106.497 18.72C106.3 18.544 106.06 18.456 105.777 18.456C105.494 18.456 105.257 18.544 105.065 18.72C104.878 18.896 104.766 19.1307 104.729 19.424H106.825ZM111.993 20.736C112.228 20.5013 112.345 20.1813 112.345 19.776C112.345 19.3707 112.228 19.0533 111.993 18.824C111.764 18.5947 111.492 18.48 111.177 18.48C110.863 18.48 110.588 18.5973 110.353 18.832C110.124 19.0613 110.009 19.3787 110.009 19.784C110.009 20.1893 110.124 20.5093 110.353 20.744C110.588 20.9733 110.863 21.088 111.177 21.088C111.492 21.088 111.764 20.9707 111.993 20.736ZM110.009 18.256C110.324 17.7547 110.785 17.504 111.393 17.504C112.001 17.504 112.503 17.7173 112.897 18.144C113.292 18.5653 113.489 19.112 113.489 19.784C113.489 20.4507 113.292 20.9973 112.897 21.424C112.503 21.8507 112.004 22.064 111.401 22.064C110.804 22.064 110.34 21.7947 110.009 21.256V22H108.881V16.08H110.009V18.256ZM114.125 18.864C114.125 18.48 114.288 18.1573 114.613 17.896C114.939 17.6347 115.371 17.504 115.909 17.504C116.448 17.504 116.88 17.6347 117.205 17.896C117.531 18.152 117.704 18.5013 117.725 18.944H116.573C116.541 18.5707 116.312 18.384 115.885 18.384C115.672 18.384 115.507 18.4267 115.389 18.512C115.272 18.5973 115.213 18.7147 115.213 18.864C115.213 19.0133 115.301 19.1307 115.477 19.216C115.653 19.3013 115.867 19.368 116.117 19.416C116.368 19.464 116.616 19.5253 116.861 19.6C117.112 19.6693 117.325 19.7973 117.501 19.984C117.677 20.1653 117.765 20.408 117.765 20.712C117.765 21.112 117.595 21.4373 117.253 21.688C116.917 21.9387 116.485 22.064 115.957 22.064C115.435 22.064 115.005 21.9413 114.669 21.696C114.333 21.4453 114.149 21.088 114.117 20.624H115.269C115.312 20.9973 115.549 21.184 115.981 21.184C116.189 21.184 116.357 21.1387 116.485 21.048C116.613 20.952 116.677 20.8293 116.677 20.68C116.677 20.5253 116.589 20.4053 116.413 20.32C116.237 20.2293 116.024 20.16 115.773 20.112C115.523 20.064 115.272 20.0053 115.021 19.936C114.776 19.8667 114.565 19.744 114.389 19.568C114.213 19.3867 114.125 19.152 114.125 18.864ZM119.973 16.44C119.973 16.632 119.906 16.7947 119.773 16.928C119.64 17.0613 119.477 17.128 119.285 17.128C119.098 17.128 118.938 17.0613 118.805 16.928C118.672 16.7947 118.605 16.632 118.605 16.44C118.605 16.248 118.672 16.0853 118.805 15.952C118.938 15.8187 119.098 15.752 119.285 15.752C119.477 15.752 119.64 15.8187 119.773 15.952C119.906 16.0853 119.973 16.248 119.973 16.44ZM118.725 22V17.568H119.853V22H118.725ZM122.773 21.056H123.309V22H122.597C122.144 22 121.794 21.896 121.549 21.688C121.304 21.48 121.181 21.136 121.181 20.656V18.488H120.709V17.568H121.181V16.472H122.309V17.568H123.301V18.488H122.309V20.656C122.309 20.8 122.344 20.904 122.413 20.968C122.482 21.0267 122.602 21.056 122.773 21.056ZM126.058 22.064C125.413 22.064 124.887 21.856 124.482 21.44C124.077 21.0187 123.874 20.464 123.874 19.776C123.874 19.088 124.077 18.5387 124.482 18.128C124.893 17.712 125.421 17.504 126.066 17.504C126.717 17.504 127.25 17.7067 127.666 18.112C128.082 18.512 128.29 19.048 128.29 19.72C128.29 19.8747 128.279 20.0187 128.258 20.152H125.026C125.053 20.44 125.159 20.672 125.346 20.848C125.533 21.024 125.77 21.112 126.058 21.112C126.447 21.112 126.735 20.952 126.922 20.632H128.138C128.01 21.0533 127.762 21.3973 127.394 21.664C127.026 21.9307 126.581 22.064 126.058 22.064ZM127.122 19.424C127.106 19.1307 126.997 18.896 126.794 18.72C126.597 18.544 126.357 18.456 126.074 18.456C125.791 18.456 125.554 18.544 125.362 18.72C125.175 18.896 125.063 19.1307 125.026 19.424H127.122ZM130.202 21.36C130.202 21.5413 130.138 21.6933 130.01 21.816C129.887 21.9387 129.735 22 129.554 22C129.378 22 129.229 21.9387 129.106 21.816C128.983 21.6933 128.922 21.5413 128.922 21.36C128.922 21.1787 128.983 21.0267 129.106 20.904C129.229 20.7813 129.378 20.72 129.554 20.72C129.735 20.72 129.887 20.7813 130.01 20.904C130.138 21.0267 130.202 21.1787 130.202 21.36Z" transform="translate(208 39)" fill="white"/>
<rect width="2" height="33" transform="translate(196 32)" fill="#5A5D62"/>
<defs>
<filter id="filter0_d" x="7" y="248" width="213" height="95" filterUnits="userSpaceOnUse" color-interpolation-filters="sRGB">
<feFlood flood-opacity="0" result="BackgroundImageFix"/>
<feColorMatrix in="SourceAlpha" type="matrix" values="0 0 0 0 0 0 0 0 0 0 0 0 0 0 0 0 0 0 255 0"/>
<feOffset dy="5"/>
<feGaussianBlur stdDeviation="7.5"/>
<feColorMatrix type="matrix" values="0 0 0 0 0 0 0 0 0 0 0 0 0 0 0 0 0 0 0.25 0"/>
<feBlend mode="normal" in2="BackgroundImageFix" result="effect1_dropShadow"/>
<feBlend mode="normal" in="SourceGraphic" in2="effect1_dropShadow" result="shape"/>
</filter>
<filter id="filter1_d" x="166" y="4" width="213" height="95" filterUnits="userSpaceOnUse" color-interpolation-filters="sRGB">
<feFlood flood-opacity="0" result="BackgroundImageFix"/>
<feColorMatrix in="SourceAlpha" type="matrix" values="0 0 0 0 0 0 0 0 0 0 0 0 0 0 0 0 0 0 255 0"/>
<feOffset dy="5"/>
<feGaussianBlur stdDeviation="7.5"/>
<feColorMatrix type="matrix" values="0 0 0 0 0 0 0 0 0 0 0 0 0 0 0 0 0 0 0.25 0"/>
<feBlend mode="normal" in2="BackgroundImageFix" result="effect1_dropShadow"/>
<feBlend mode="normal" in="SourceGraphic" in2="effect1_dropShadow" result="shape"/>
</filter>
<linearGradient id="paint0_linear" x2="1" gradientUnits="userSpaceOnUse" gradientTransform="translate(288) scale(288) rotate(90)">
<stop stop-color="#00A3FF"/>
<stop offset="1" stop-color="#00FFD1"/>
</linearGradient>
<linearGradient id="paint1_linear" x2="1" gradientUnits="userSpaceOnUse" gradientTransform="translate(277.2) scale(277.2 237.6) rotate(90)">
<stop stop-color="#00A3FF"/>
<stop offset="1" stop-color="#00FFD1"/>
</linearGradient>
<linearGradient id="paint2_linear" x2="1" gradientUnits="userSpaceOnUse" gradientTransform="translate(266.4) scale(266.4 187.2) rotate(90)">
<stop stop-color="#00A3FF"/>
<stop offset="1" stop-color="#00FFD1"/>
</linearGradient>
<linearGradient id="paint3_linear" x2="1" gradientUnits="userSpaceOnUse" gradientTransform="translate(255.6) scale(255.6 136.8) rotate(90)">
<stop stop-color="#00A3FF"/>
<stop offset="1" stop-color="#00FFD1"/>
</linearGradient>
<linearGradient id="paint4_linear" x2="1" gradientUnits="userSpaceOnUse" gradientTransform="translate(244.8) scale(244.8 86.4) rotate(90)">
<stop stop-color="#00A3FF"/>
<stop offset="1" stop-color="#00FFD1"/>
</linearGradient>
<linearGradient id="paint5_linear" x2="1" gradientUnits="userSpaceOnUse" gradientTransform="translate(234) scale(234 36) rotate(90)">
<stop stop-color="#00A3FF"/>
<stop offset="1" stop-color="#00FFD1"/>
</linearGradient>
<linearGradient id="paint6_linear" x2="1" gradientUnits="userSpaceOnUse" gradientTransform="translate(288) scale(288) rotate(90)">
<stop stop-color="#00A3FF"/>
<stop offset="1" stop-color="#00FFD1"/>
</linearGradient>
<linearGradient id="paint7_linear" x2="1" gradientUnits="userSpaceOnUse" gradientTransform="translate(277.2) scale(277.2 237.6) rotate(90)">
<stop stop-color="#00A3FF"/>
<stop offset="1" stop-color="#00FFD1"/>
</linearGradient>
<linearGradient id="paint8_linear" x2="1" gradientUnits="userSpaceOnUse" gradientTransform="translate(266.4) scale(266.4 187.2) rotate(90)">
<stop stop-color="#00A3FF"/>
<stop offset="1" stop-color="#00FFD1"/>
</linearGradient>
<linearGradient id="paint9_linear" x2="1" gradientUnits="userSpaceOnUse" gradientTransform="translate(255.6) scale(255.6 136.8) rotate(90)">
<stop stop-color="#00A3FF"/>
<stop offset="1" stop-color="#00FFD1"/>
</linearGradient>
<linearGradient id="paint10_linear" x2="1" gradientUnits="userSpaceOnUse" gradientTransform="translate(244.8) scale(244.8 86.4) rotate(90)">
<stop stop-color="#00A3FF"/>
<stop offset="1" stop-color="#00FFD1"/>
</linearGradient>
<linearGradient id="paint11_linear" x2="1" gradientUnits="userSpaceOnUse" gradientTransform="translate(234) scale(234 36) rotate(90)">
<stop stop-color="#00A3FF"/>
<stop offset="1" stop-color="#00FFD1"/>
</linearGradient>
<linearGradient id="paint12_linear" x2="1" gradientUnits="userSpaceOnUse" gradientTransform="translate(288) scale(288) rotate(90)">
<stop stop-color="#00A3FF"/>
<stop offset="1" stop-color="#00FFD1"/>
</linearGradient>
<linearGradient id="paint13_linear" x2="1" gradientUnits="userSpaceOnUse" gradientTransform="translate(237.6) scale(237.6 277.2) rotate(90)">
<stop stop-color="#00A3FF"/>
<stop offset="1" stop-color="#00FFD1"/>
</linearGradient>
<linearGradient id="paint14_linear" x2="1" gradientUnits="userSpaceOnUse" gradientTransform="translate(187.2) scale(187.2 266.4) rotate(90)">
<stop stop-color="#00A3FF"/>
<stop offset="1" stop-color="#00FFD1"/>
</linearGradient>
<linearGradient id="paint15_linear" x2="1" gradientUnits="userSpaceOnUse" gradientTransform="translate(136.8) scale(136.8 255.6) rotate(90)">
<stop stop-color="#00A3FF"/>
<stop offset="1" stop-color="#00FFD1"/>
</linearGradient>
<linearGradient id="paint16_linear" x2="1" gradientUnits="userSpaceOnUse" gradientTransform="translate(86.4) scale(86.4 244.8) rotate(90)">
<stop stop-color="#00A3FF"/>
<stop offset="1" stop-color="#00FFD1"/>
</linearGradient>
<linearGradient id="paint17_linear" x2="1" gradientUnits="userSpaceOnUse" gradientTransform="translate(36) scale(36 234) rotate(90)">
<stop stop-color="#00A3FF"/>
<stop offset="1" stop-color="#00FFD1"/>
</linearGradient>
<linearGradient id="paint18_linear" x2="1" gradientUnits="userSpaceOnUse" gradientTransform="matrix(-172.5 62 -174.554 -485.654 265.277 245.827)">
<stop stop-color="#20252A"/>
<stop offset="1" stop-color="#101010"/>
</linearGradient>
<linearGradient id="paint19_linear" x2="1" gradientUnits="userSpaceOnUse" gradientTransform="matrix(-172.5 62 -174.554 -485.654 265.277 245.827)">
<stop stop-color="#20252A"/>
<stop offset="1" stop-color="#101010"/>
</linearGradient>
</defs>
</svg>
