<svg width="129" height="40" viewBox="0 0 129 40" fill="none" xmlns="http://www.w3.org/2000/svg">
<path d="M15.03 4.98V0.87H0V21.87H4.2V13.02H10.53V8.94H4.2V4.98H15.03Z" transform="translate(48 6)" fill="black"/>
<path d="M21.75 21.87V0L17.61 2.07V21.87H21.75Z" transform="translate(48 6)" fill="black"/>
<path d="M38.8268 21.87V6.12H34.6868V14.73C34.6868 17.46 33.6968 18.3 31.9868 18.3C30.2768 18.3 29.3168 17.46 29.3168 14.64V6.12H25.1768V15C25.1768 19.44 26.9768 22.2 30.9968 22.2C32.6468 22.2 33.9668 21.57 34.6868 20.82V21.87H38.8268Z" transform="translate(48 6)" fill="black"/>
<path d="M64.8063 21.87V12.99C64.8063 8.55 63.2163 5.79 59.1963 5.79C56.5863 5.79 55.2663 6.69 54.1863 7.8C53.0163 6.36 51.8463 5.79 49.8363 5.79C48.1863 5.79 47.1063 6.42 46.3863 7.17V6.12H42.2463V21.87H46.3863V13.26C46.3863 10.53 47.2263 9.69 48.9363 9.69C50.6463 9.69 51.4563 10.53 51.4563 13.35V21.87H55.5963V13.26C55.5963 10.53 56.4363 9.69 58.1463 9.69C59.8563 9.69 60.6663 10.53 60.6663 13.35V21.87H64.8063Z" transform="translate(48 6)" fill="black"/>
<path d="M80.9121 14.01C80.9121 9.51 78.4821 5.79 74.2821 5.79C70.2921 5.79 67.2621 9.18 67.2621 14.01C67.2621 18.99 70.1421 22.2 74.6721 22.2C76.7721 22.2 79.0521 21.27 80.3121 19.65L77.3721 17.19C76.7721 17.88 75.8121 18.3 74.6721 18.3C73.1721 18.3 71.5821 17.49 71.4321 15.33H80.8521C80.8821 15.03 80.9121 14.61 80.9121 14.01ZM76.8921 12.21H71.4921C71.6421 10.62 72.5721 9.39 74.0721 9.39C75.9321 9.39 76.7721 10.8 76.8921 12.21Z" transform="translate(48 6)" fill="black"/>
<ellipse cx="14.1429" cy="14.1935" rx="14.1429" ry="14.1935" fill="black"/>
<ellipse cx="14.1429" cy="14.1935" rx="14.1429" ry="14.1935" transform="translate(7.71429 11.6128)" fill="#24ED99"/>
</svg>
